<svg width="80" height="80" viewBox="0 0 80 80" fill="none" xmlns="http://www.w3.org/2000/svg">
<rect x="0.5" y="0.5" width="79" height="79" rx="9.5" stroke="#E1E7F6"/>
<path d="M46.2599 28.7843H29.2392V24.5L20 32.2606L29.2392 40.1833V35.8965H46.2599V28.7843ZM33.7376 51.2157H50.7608V55.5L60 47.7394L50.7608 39.8192V44.1035H33.7376V51.2157ZM27.0563 44.7893C29.4093 44.7893 31.3246 46.6995 31.3246 49.0436C31.3226 50.172 30.8723 51.2536 30.0723 52.0515C29.2722 52.8494 28.1877 53.2985 27.0563 53.3005C24.7059 53.3005 22.7905 51.3903 22.7905 49.0436C22.7905 46.6995 24.7034 44.7893 27.0563 44.7893ZM27.0563 44.1808C25.7628 44.1811 24.5224 44.6939 23.608 45.6063C22.6936 46.5188 22.1801 47.7561 22.1804 49.0461C22.1807 50.3362 22.6949 51.5732 23.6098 52.4852C24.5247 53.3972 25.7653 53.9093 27.0588 53.909C28.3523 53.9086 29.5927 53.3959 30.5071 52.4834C31.4215 51.571 31.9351 50.3337 31.9347 49.0436C31.9344 47.7536 31.4202 46.5165 30.5054 45.6046C29.5905 44.6926 28.3498 44.1805 27.0563 44.1808ZM27.0563 45.3978C26.0864 45.3978 25.1563 45.782 24.4705 46.466C23.7847 47.1499 23.3994 48.0776 23.3994 49.0449C23.3994 50.0122 23.7847 50.9398 24.4705 51.6238C25.1563 52.3078 26.0864 52.692 27.0563 52.692C28.0262 52.692 28.9564 52.3078 29.6422 51.6238C30.328 50.9398 30.7133 50.0122 30.7133 49.0449C30.7133 48.0776 30.328 47.1499 29.6422 46.466C28.9564 45.782 28.0262 45.3978 27.0563 45.3978ZM28.3866 50.9214C28.1146 51.2079 27.7416 51.3778 27.3464 51.3953V52.0835H26.7713V51.3978C26.0161 51.3229 25.5485 50.884 25.366 50.086L26.2587 49.8541C26.3412 50.3554 26.6162 50.6072 27.0813 50.6072C27.2964 50.6072 27.4589 50.5549 27.5614 50.4476C27.6639 50.3404 27.7164 50.2082 27.7164 50.0586C27.7202 49.9909 27.7081 49.9232 27.6812 49.8609C27.6543 49.7986 27.6133 49.7433 27.5614 49.6995C27.348 49.5678 27.1186 49.4639 26.8788 49.3903C26.5612 49.2805 26.3137 49.1733 26.1362 49.0661C25.9439 48.9491 25.7865 48.7828 25.6806 48.5845C25.5746 48.3863 25.5238 48.1634 25.5335 47.9389C25.5335 47.5998 25.6336 47.298 25.8336 47.0287C26.0336 46.7594 26.3462 46.5948 26.7738 46.5349V46.0037H27.3489V46.5349C27.994 46.6122 28.4116 46.9788 28.6016 47.6272L27.8065 47.9539C27.6514 47.505 27.4114 47.283 27.0863 47.283C27.0141 47.2797 26.9419 47.2912 26.8744 47.317C26.8068 47.3427 26.7453 47.3821 26.6938 47.4327C26.6453 47.48 26.607 47.5367 26.5812 47.5993C26.5554 47.6619 26.5427 47.7291 26.5437 47.7968C26.5437 47.9414 26.5912 48.0536 26.6888 48.1309C26.8779 48.2542 27.0832 48.3507 27.2989 48.4177C27.6414 48.5424 27.9115 48.6621 28.1065 48.7718C28.3082 48.8866 28.4746 49.0541 28.5879 49.2562C28.7011 49.4584 28.7569 49.6875 28.7491 49.919C28.7599 50.2868 28.6303 50.6451 28.3866 50.9214ZM53.4988 27.3279C55.8492 27.3279 57.7671 29.2382 57.7671 31.5848C57.7671 33.9289 55.8492 35.8392 53.4988 35.8392C51.1483 35.8392 49.233 33.9289 49.233 31.5848C49.233 29.2382 51.1483 27.3279 53.4988 27.3279ZM53.4988 26.7219C52.2049 26.7226 50.9644 27.2358 50.05 28.1487C49.1355 29.0616 48.6222 30.2994 48.6229 31.5898C48.6235 32.8801 49.1381 34.1174 50.0535 35.0294C50.9688 35.9413 52.2099 36.4533 53.5038 36.4526C54.7976 36.452 56.0382 35.9387 56.9526 35.0258C57.867 34.1129 58.3804 32.8752 58.3797 31.5848C58.379 30.2944 57.8644 29.0572 56.9491 28.1452C56.0337 27.2332 54.7926 26.7213 53.4988 26.7219ZM53.4988 27.9364C53.0185 27.9362 52.543 28.0304 52.0992 28.2136C51.6555 28.3967 51.2523 28.6652 50.9126 29.0037C50.5729 29.3423 50.3034 29.7443 50.1194 30.1867C49.9355 30.6291 49.8408 31.1033 49.8406 31.5823C49.8404 32.0612 49.9349 32.5355 50.1185 32.9781C50.3021 33.4206 50.5713 33.8228 50.9108 34.1616C51.2503 34.5004 51.6533 34.7691 52.0969 34.9526C52.5405 35.136 53.016 35.2305 53.4963 35.2307C54.4662 35.231 55.3965 34.8471 56.0825 34.1633C56.7685 33.4796 57.1541 32.5521 57.1545 31.5848C57.1548 30.6175 56.7698 29.6897 56.0843 29.0055C55.3987 28.3213 54.4687 27.9367 53.4988 27.9364ZM54.829 33.4626C54.5561 33.7464 54.1851 33.9158 53.7913 33.9364V34.6247H53.2162V33.9414C52.4586 33.8641 51.9935 33.4252 51.811 32.6272L52.7036 32.3953C52.7836 32.8965 53.0612 33.1459 53.5238 33.1459C53.7413 33.1459 53.9014 33.0935 54.0039 32.9863C54.1044 32.8817 54.16 32.7421 54.1589 32.5973C54.163 32.5295 54.1512 32.4617 54.1242 32.3993C54.0973 32.3369 54.0561 32.2817 54.0039 32.2382C53.7916 32.1043 53.5619 32.0003 53.3212 31.9289C53.0621 31.8464 52.8123 31.7369 52.5761 31.6022C52.3986 31.495 52.2535 31.3454 52.141 31.1509C52.0285 30.9564 51.9735 30.7319 51.9735 30.4751C51.9735 30.1384 52.0735 29.8342 52.2736 29.5648C52.4711 29.298 52.7836 29.1334 53.2137 29.0711V28.5449H53.7888V29.0761C54.434 29.1534 54.8515 29.5175 55.0416 30.1683L54.2464 30.4925C54.0939 30.0461 53.8538 29.8242 53.5288 29.8242C53.4565 29.8208 53.3844 29.8324 53.3168 29.8581C53.2493 29.8839 53.1878 29.9233 53.1362 29.9738C53.0877 30.0212 53.0495 30.0779 53.0237 30.1405C52.9979 30.2031 52.9851 30.2702 52.9862 30.3379C52.9862 30.4825 53.0362 30.5948 53.1312 30.6696C53.2262 30.7469 53.4288 30.8416 53.7413 30.9589C54.0839 31.0835 54.3539 31.2007 54.5465 31.313C54.7491 31.4266 54.9163 31.5939 55.0297 31.7963C55.1431 31.9987 55.1982 32.2284 55.1891 32.4601C55.1891 32.8591 55.0691 33.1958 54.829 33.4626Z" fill="#293B93"/>
</svg>
