<svg width="816" height="816" viewBox="0 0 816 816" fill="none" xmlns="http://www.w3.org/2000/svg">
<circle opacity="0.05" cx="408" cy="408" r="407.5" stroke="#293B93"/>
<circle opacity="0.25" cx="408.5" cy="408.5" r="354" stroke="#293B93" stroke-linecap="round" stroke-linejoin="round" stroke-dasharray="4 6"/>
<mask id="mask0_9_11719" style="mask-type:alpha" maskUnits="userSpaceOnUse" x="130" y="130" width="556" height="556">
<circle cx="408" cy="408" r="277.5" fill="white" stroke="#293B93"/>
</mask>
<g mask="url(#mask0_9_11719)">
<g opacity="0.04">
<line x1="236.5" y1="130" x2="236.5" y2="686" stroke="#293B93"/>
<line x1="285.5" y1="130" x2="285.5" y2="686" stroke="#293B93"/>
<line x1="334.5" y1="130" x2="334.5" y2="686" stroke="#293B93"/>
<line x1="383.5" y1="130" x2="383.5" y2="686" stroke="#293B93"/>
<line x1="432.5" y1="130" x2="432.5" y2="686" stroke="#293B93"/>
<line x1="481.5" y1="130" x2="481.5" y2="686" stroke="#293B93"/>
<line x1="530.5" y1="130" x2="530.5" y2="686" stroke="#293B93"/>
<line x1="579.5" y1="130" x2="579.5" y2="686" stroke="#293B93"/>
<line x1="628.5" y1="130" x2="628.5" y2="686" stroke="#293B93"/>
<line x1="677.5" y1="130" x2="677.5" y2="686" stroke="#293B93"/>
<line x1="187.5" y1="130" x2="187.5" y2="686" stroke="#293B93"/>
<line x1="138.5" y1="130" x2="138.5" y2="686" stroke="#293B93"/>
<line x1="686" y1="236.5" x2="130" y2="236.5" stroke="#293B93"/>
<line x1="686" y1="285.5" x2="130" y2="285.5" stroke="#293B93"/>
<line x1="686" y1="334.5" x2="130" y2="334.5" stroke="#293B93"/>
<line x1="686" y1="383.5" x2="130" y2="383.5" stroke="#293B93"/>
<line x1="686" y1="432.5" x2="130" y2="432.5" stroke="#293B93"/>
<line x1="686" y1="481.5" x2="130" y2="481.5" stroke="#293B93"/>
<line x1="686" y1="530.5" x2="130" y2="530.5" stroke="#293B93"/>
<line x1="686" y1="579.5" x2="130" y2="579.5" stroke="#293B93"/>
<line x1="686" y1="628.5" x2="130" y2="628.5" stroke="#293B93"/>
<line x1="686" y1="677.5" x2="130" y2="677.5" stroke="#293B93"/>
<line x1="686" y1="187.5" x2="130" y2="187.5" stroke="#293B93"/>
<line x1="686" y1="138.5" x2="130" y2="138.5" stroke="#293B93"/>
</g>
<circle opacity="0.5" cx="408" cy="408" r="277.5" stroke="#293B93"/>
<circle opacity="0.16" cx="408" cy="408" r="278" fill="url(#paint0_radial_9_11719)"/>
</g>
<g opacity="0.1">
<path d="M647.5 408C647.5 561.331 540.206 685.5 408 685.5C275.794 685.5 168.5 561.331 168.5 408C168.5 254.669 275.794 130.5 408 130.5C540.206 130.5 647.5 254.669 647.5 408Z" stroke="#293B93"/>
<path d="M597.5 408C597.5 484.68 576.257 554.079 541.938 604.294C507.616 654.511 460.254 685.5 408 685.5C355.746 685.5 308.384 654.511 274.062 604.294C239.743 554.079 218.5 484.68 218.5 408C218.5 331.32 239.743 261.921 274.062 211.706C308.384 161.489 355.746 130.5 408 130.5C460.254 130.5 507.616 161.489 541.938 211.706C576.257 261.921 597.5 331.32 597.5 408Z" stroke="#293B93"/>
<path d="M513.5 408C513.5 484.723 501.642 554.159 482.486 604.397C472.908 629.518 461.514 649.813 448.889 663.818C436.263 677.824 422.445 685.5 408 685.5C393.555 685.5 379.737 677.824 367.111 663.818C354.486 649.813 343.092 629.518 333.514 604.397C314.358 554.159 302.5 484.723 302.5 408C302.5 331.277 314.358 261.841 333.514 211.603C343.092 186.482 354.486 166.187 367.111 152.182C379.737 138.176 393.555 130.5 408 130.5C422.445 130.5 436.263 138.176 448.889 152.182C461.514 166.187 472.908 186.482 482.486 211.603C501.642 261.841 513.5 331.277 513.5 408Z" stroke="#293B93"/>
<path d="M408 647.5C254.669 647.5 130.5 540.206 130.5 408C130.5 275.794 254.669 168.5 408 168.5C561.331 168.5 685.5 275.794 685.5 408C685.5 540.206 561.331 647.5 408 647.5Z" stroke="#293B93"/>
<path d="M408 597.5C331.32 597.5 261.921 576.257 211.706 541.938C161.489 507.616 130.5 460.254 130.5 408C130.5 355.746 161.489 308.384 211.706 274.062C261.921 239.743 331.32 218.5 408 218.5C484.68 218.5 554.079 239.743 604.294 274.062C654.511 308.384 685.5 355.746 685.5 408C685.5 460.254 654.511 507.616 604.294 541.938C554.079 576.257 484.68 597.5 408 597.5Z" stroke="#293B93"/>
<path d="M408 513.5C331.277 513.5 261.841 501.642 211.603 482.486C186.482 472.908 166.187 461.514 152.182 448.889C138.176 436.263 130.5 422.445 130.5 408C130.5 393.555 138.176 379.737 152.182 367.111C166.187 354.486 186.482 343.092 211.603 333.514C261.841 314.358 331.277 302.5 408 302.5C484.723 302.5 554.159 314.358 604.397 333.514C629.518 343.092 649.813 354.486 663.818 367.111C677.824 379.737 685.5 393.555 685.5 408C685.5 422.445 677.824 436.263 663.818 448.889C649.813 461.514 629.518 472.908 604.397 482.486C554.159 501.642 484.723 513.5 408 513.5Z" stroke="#293B93"/>
</g>
<circle opacity="0.2" cx="321.5" cy="64.5" r="10.5" fill="#B48755"/>
<circle cx="321.5" cy="64.5" r="4.5" fill="#B48755"/>
<circle opacity="0.2" cx="443.5" cy="413.5" r="10.5" fill="#B48755"/>
<circle cx="443.5" cy="413.5" r="4.5" fill="#B48755"/>
<circle opacity="0.2" cx="238.5" cy="346.5" r="10.5" fill="#293B93"/>
<circle cx="238.5" cy="346.5" r="4.5" fill="#293B93"/>
<circle opacity="0.2" cx="372.5" cy="276.5" r="10.5" fill="#293B93"/>
<circle cx="372.5" cy="276.5" r="4.5" fill="#293B93"/>
<circle opacity="0.2" cx="418.5" cy="303.5" r="10.5" fill="#293B93"/>
<circle cx="418.5" cy="303.5" r="4.5" fill="#293B93"/>
<circle opacity="0.2" cx="581.5" cy="367.5" r="10.5" fill="#293B93"/>
<circle cx="581.5" cy="367.5" r="4.5" fill="#293B93"/>
<circle opacity="0.2" cx="537.5" cy="470.5" r="10.5" fill="#293B93"/>
<circle cx="537.5" cy="470.5" r="4.5" fill="#293B93"/>
<defs>
<radialGradient id="paint0_radial_9_11719" cx="0" cy="0" r="1" gradientUnits="userSpaceOnUse" gradientTransform="translate(408 408) rotate(90) scale(278 360.206)">
<stop offset="0.774038" stop-color="#293B93" stop-opacity="0"/>
<stop offset="1" stop-color="#293B93" stop-opacity="0.39"/>
</radialGradient>
</defs>
</svg>
